# xmcd CD database file generated by OrangeCD 6.3
#
# Track frame offsets:
#	150
#	17960
#	30437
#	52720
#	66280
#	88685
#	105650
#	126452
#	141362
#	167800
#	190140
#
# Disc length: 2779 seconds
#
# Revision: 0
# Processed by: cddbd v1.5.2PL0 Copyright (c) Steve Scherf et al.
# Submitted via: OrangeCD 6.3
#
DISCID=950ad90b
DTITLE=Various Artist - The New A3/Americana Spice Sampler
DYEAR=1900
DGENRE=
TTITLE0=Capercaillie - Claire In Heaven
TTITLE1=File - One Foot In The Bayou
TTITLE2=Wolfstone - Tall Ships
TTITLE3=The Kennedys - A Palce In Time
TTITLE4=Capercaillie - Why Won't You Touch Me
TTITLE5=The Klezmatics - Fradde's Song
TTITLE6=Tarika - Avelo (The Ghost Mix)
TTITLE7=Wolfstone - Heart And Soul
TTITLE8=File - Loup Garou Mange Pas Mes Enfants
TTITLE9=Capercaillie - The Crooked Mountain
TTITLE10=Open House - And When I Die
EXTD=
EXTT0=
EXTT1=
EXTT2=
EXTT3=
EXTT4=
EXTT5=
EXTT6=
EXTT7=
EXTT8=
EXTT9=
EXTT10=
PLAYORDER=
